<?xml version="1.0" encoding="utf-8" ?>
<svg baseProfile="full" height="224" version="1.1" width="224" xmlns="http://www.w3.org/2000/svg" xmlns:ev="http://www.w3.org/2001/xml-events" xmlns:xlink="http://www.w3.org/1999/xlink"><defs /><rect fill="white" height="224" width="224" x="0" y="0" /><path d="M157.4149214659686,45.61321989528796 m0.867801047120419,-2.024869109947644 l2.6034031413612566,-1.1570680628272252 2.3141361256544504,0.2892670157068063 l9.835078534031414,8.967277486910994 31.819371727748692,2.024869109947644 l7.520942408376964,2.024869109947644 5.206806282722513,2.6034031413612566 l3.760471204188482,4.049738219895288 1.1570680628272252,3.760471204188482 l-0.867801047120419,5.206806282722513 -2.3141361256544504,3.181937172774869 l-3.181937172774869,1.4463350785340314 -5.785340314136126,1.1570680628272252 l-23.719895287958117,0.5785340314136126 -8.388743455497382,1.4463350785340314 m-17.93455497382199,-32.397905759162306 l-6.074607329842932,11.859947643979059 -1.4463350785340314,6.074607329842932 l-0.2892670157068063,22.562827225130892 -5.4960732984293195,6.363874345549738 l-13.884816753926703,6.942408376963352 -3.471204188481676,0.867801047120419 l-4.917539267015707,-2.892670157068063 -1.1570680628272252,-3.181937172774869 l-3.471204188481676,-15.909685863874346 -5.785340314136126,-20.248691099476442 l-5.785340314136126,-11.570680628272251 -5.785340314136126,-4.628272251308901 l-5.206806282722513,-0.5785340314136126 -5.206806282722513,2.6034031413612566 l-4.628272251308901,5.4960732984293195 -13.306282722513089,36.447643979057595 l-1.735602094240838,3.471204188481676 -4.049738219895288,4.3390052356020945 l-2.024869109947644,0.867801047120419 -4.049738219895288,0.0 l-3.760471204188482,-2.6034031413612566 -3.760471204188482,-6.942408376963352 l-4.049738219895288,-13.595549738219896 -3.181937172774869,-19.091623036649217 l-2.3141361256544504,-4.3390052356020945 -3.471204188481676,-2.3141361256544504 l-4.628272251308901,0.0 -5.785340314136126,3.471204188481676 l-3.760471204188482,6.074607329842932 -0.867801047120419,2.892670157068063 l0.0,15.041884816753928 -1.735602094240838,6.074607329842932 l-2.892670157068063,4.3390052356020945 -13.595549738219896,10.413612565445026 l-5.206806282722513,5.785340314136126 -1.735602094240838,4.3390052356020945 l-0.2892670157068063,8.678010471204189 2.3141361256544504,6.074607329842932 l11.570680628272251,14.463350785340316 1.4463350785340314,6.074607329842932 l-0.2892670157068063,16.48821989528796 -3.181937172774869,18.223821989528798 l0.867801047120419,6.363874345549738 15.909685863874346,0.0 l2.024869109947644,-10.124345549738221 1.1570680628272252,-15.331151832460733 l-1.4463350785340314,-16.777486910994764 23.43062827225131,-4.917539267015707 l36.7369109947644,-0.2892670157068063 18.223821989528798,0.2892670157068063 l10.992146596858639,3.471204188481676 2.024869109947644,2.024869109947644 m0.0,0.0 l0.0,0.0 0.0,0.0 l0.0,0.0 0.0,0.0 l0.0,0.0 0.0,0.0 l0.0,0.0 0.0,0.0 l0.0,0.0 0.0,0.0 l0.0,0.0 0.0,0.0 l0.0,0.0 0.0,0.0 l0.0,0.0 0.0,0.0 l0.0,0.0 0.0,0.0 l0.0,0.0 0.0,0.0 l0.0,0.0 0.0,0.0 l0.0,0.0 0.0,0.0 l0.0,0.0 0.0,0.0 l0.0,0.0 0.0,0.0 l0.0,0.0 0.0,0.0 l0.0,0.0 0.0,0.0 l0.0,0.0 0.0,0.0 l0.0,0.0 0.0,0.0 l0.0,0.0 0.0,0.0 l0.0,0.0 0.0,0.0 l0.0,0.0 0.0,0.0 l0.0,0.0 0.0,0.0 l0.0,0.0 0.0,0.0 l0.0,0.0 0.0,0.0 l0.0,0.0 0.0,0.0 l0.0,0.0 0.0,0.0 l0.0,0.0 0.0,0.0 l0.0,0.0 0.0,0.0 l0.0,0.0 0.0,0.0 l0.0,0.0 0.0,0.0 l0.0,0.0 0.0,0.0 l0.0,0.0 0.0,0.0 l0.0,0.0 0.0,0.0 l0.0,0.0 0.0,0.0 l0.0,0.0 0.0,0.0 l0.0,0.0 0.0,0.0 l0.0,0.0 0.0,0.0 l0.0,0.0 0.0,0.0 l0.0,0.0 0.0,0.0 l0.0,0.0 0.0,0.0 l0.0,0.0 0.0,0.0 l0.0,0.0 0.0,0.0 l0.0,0.0 0.0,0.0 l0.0,0.0 0.0,0.0 l0.0,0.0 0.0,0.0 l0.0,0.0 0.0,0.0 l0.0,0.0 0.0,0.0 l0.0,0.0 0.0,0.0 l0.0,0.0 0.0,0.0 l0.0,0.0 0.0,0.0 l0.0,0.0 0.0,0.0 l0.0,0.0 0.0,0.0 l0.0,0.0 0.0,0.0 l0.0,0.0 0.0,0.0 l0.0,0.0 0.0,0.0 l0.0,0.0 0.0,0.0 l0.0,0.0 0.0,0.0 l0.0,0.0 0.0,0.0 l0.0,0.0 0.0,0.0 l0.0,0.0 0.0,0.0 l0.0,0.0 0.0,0.0 l0.0,0.0 0.0,0.0 l0.0,0.0 0.0,0.0 l0.0,0.0 0.0,0.0 l0.0,0.0 0.0,0.0 l0.0,0.0 0.0,0.0 l0.0,0.0 0.0,0.0 l0.0,0.0 0.0,0.0 l0.0,0.0 0.0,0.0 l0.0,0.0 0.0,0.0 l0.0,0.0 0.0,0.0 l0.0,0.0 0.0,0.0 l0.0,0.0 0.0,0.0 l0.0,0.0 0.0,0.0 l0.0,0.0 0.0,0.0 l0.0,0.0 0.0,0.0 l0.0,0.0 0.0,0.0 l0.0,0.0 0.0,0.0 l0.0,0.0 " fill="none" stroke="black" stroke-width="1" /></svg>